<?xml version="1.0" standalone="no"?>
<!DOCTYPE svg PUBLIC "-//W3C//DTD SVG 1.1//EN" "http://www.w3.org/Graphics/SVG/1.1/DTD/svg11.dtd" >
<!--
2013-9-30: Created.
-->
<svg>
<metadata>
Created by iconfont
</metadata>
<defs>

<font id="iconfont" horiz-adv-x="1024" >
  <font-face
    font-family="iconfont"
    font-weight="500"
    font-stretch="normal"
    units-per-em="1024"
    ascent="896"
    descent="-128"
  />
    <missing-glyph />
    
    <glyph glyph-name="x" unicode="x" horiz-adv-x="1001"
d="M281 543q-27 -1 -53 -1h-83q-18 0 -36.5 -6t-32.5 -18.5t-23 -32t-9 -45.5v-76h912v41q0 16 -0.5 30t-0.5 18q0 13 -5 29t-17 29.5t-31.5 22.5t-49.5 9h-133v-97h-438v97zM955 310v-52q0 -23 0.5 -52t0.5 -58t-10.5 -47.5t-26 -30t-33 -16t-31.5 -4.5q-14 -1 -29.5 -0.5
t-29.5 0.5h-32l-45 128h-439l-44 -128h-29h-34q-20 0 -45 1q-25 0 -41 9.5t-25.5 23t-13.5 29.5t-4 30v167h911zM163 247q-12 0 -21 -8.5t-9 -21.5t9 -21.5t21 -8.5q13 0 22 8.5t9 21.5t-9 21.5t-22 8.5zM316 123q-8 -26 -14 -48q-5 -19 -10.5 -37t-7.5 -25t-3 -15t1 -14.5
t9.5 -10.5t21.5 -4h37h67h81h80h64h36q23 0 34 12t2 38q-5 13 -9.5 30.5t-9.5 34.5q-5 19 -11 39h-368zM336 498v228q0 11 2.5 23t10 21.5t20.5 15.5t34 6h188q31 0 51.5 -14.5t20.5 -52.5v-227h-327z" />
    

    
    <glyph glyph-name="lock" unicode="&#59072;" d="M512 128c-17.664 0-32 14.304-32 32l0 96c0 17.696 14.336 32 32 32s32-14.304 32-32l0-96C544 142.304 529.664 128 512 128zM832-64 192-64c-52.928 0-96 43.072-96 96L96 384c0 52.928 43.072 96 96 96l640 0c52.928 0 96-43.072 96-96l0-352C928-20.928 884.928-64 832-64zM192 416c-17.632 0-32-14.368-32-32l0-352c0-17.664 14.368-32 32-32l640 0c17.664 0 32 14.336 32 32L864 384c0 17.632-14.336 32-32 32L192 416zM736 416c-17.696 0-32 14.336-32 32L704 577.984C704 686.752 601.76 768 510.336 768 416.768 768 320 697.088 320 578.432L320 448c0-17.664-14.336-32-32-32s-32 14.336-32 32L256 578.432C256 737.152 385.312 832 510.336 832 632.224 832 768 727.68 768 577.984L768 448C768 430.336 753.696 416 736 416z"  horiz-adv-x="1024" />

    
    <glyph glyph-name="radio" unicode="&#58991;" d="M512-148C264.96-148 64 52.96 64 300S264.96 748 512 748s448-200.96 448-448S759.04-148 512-148zM512 684c-211.744 0-384-172.256-384-384s172.256-384 384-384 384 172.256 384 384S723.744 684 512 684zM512 300m-250 0a250 250 0 1 0 500 0 250 250 0 1 0-500 0ZM552.5 697.5A0.5 1 0 1 1 552.5 696.5Z"  horiz-adv-x="1024" />

    
    <glyph glyph-name="order" unicode="&#58894;" d="M288 531.744l448 0c17.664 0 32 14.336 32 32s-14.336 32-32 32l-448 0c-17.664 0-32-14.336-32-32s14.336-32 32-32l0 0zM736 404.256l-448 0c-17.664 0-32-14.336-32-32s14.336-32 32-32l448 0c17.664 0 32 14.336 32 32 0 17.664-14.336 32-32 32l0 0zM736 212.256l-448 0c-17.664 0-32-14.336-32-32s14.336-32 32-32l448 0c17.664 0 32 14.336 32 32s-14.336 32-32 32l0 0zM418.688 724l160 0c26.528 0 48 21.504 48 48s-21.504 48-48 48l-160 0c-26.496 0-48-21.504-48-48s21.504-48 48-48l0 0zM832 788l-32 0c-17.664 0-32-14.336-32-32s14.336-32 32-32l32 0c35.296 0 64-28.704 64-64l0-608c0-35.296-28.704-64-64-64l-640 0c-35.296 0-64 28.704-64 64l0 608c0 35.296 28.704 64 64 64l32 0c17.664 0 32 14.336 32 32s-14.336 32-32 32l-32 0c-70.688 0-128-57.312-128-128l0-608c0-70.688 57.312-128 128-128l640 0c70.688 0 128 57.312 128 128l0 608c0 70.688-57.312 128-128 128l0 0zM832 788z"  horiz-adv-x="1024" />

    
    <glyph glyph-name="dui" unicode="&#58917;" d="M512 800c-282.794 0-511.979-229.226-511.979-512.021 0-282.753 229.185-511.979 511.979-511.979s511.979 229.226 511.979 511.979c-0 282.794-229.185 512.021-511.979 512.021zM815.372 481.049l-346.651-461.202c-10.83-14.371-27.326-23.41-45.279-24.743-1.583-0.125-3.124-0.167-4.665-0.167-16.329 0-32.074 6.373-43.779 17.912l-192.903 189.446c-24.618 24.201-24.993 63.732-0.791 88.35 24.201 24.66 63.732 24.951 88.35 0.833l142.043-139.502 303.788 404.218c20.744 27.575 59.9 33.116 87.517 12.413 27.534-20.827 33.116-59.983 12.371-87.558z"  horiz-adv-x="1024" />

    
    <glyph glyph-name="weixin" unicode="&#59365;" d="M1024 259.968c0 141.888-141.866667 257.429333-301.461333 257.429333-169.088 0-301.866667-115.541333-301.866667-257.429333 0-142.250667 132.778667-257.386667 301.866667-257.386667 35.370667 0 71.146667 9.024 106.496 17.642667l97.450667-53.418667-26.666667 88.789333C970.922667 109.034667 1024 180.16 1024 259.968zM624.618667 304.384c-17.642667 0-35.328 17.664-35.328 35.392 0 17.621333 17.685333 35.328 35.328 35.328 26.752 0 44.458667-17.706667 44.458667-35.328C669.077333 322.048 651.370667 304.384 624.618667 304.384zM820.010667 304.384c-17.664 0-35.306667 17.664-35.306667 35.392 0 17.621333 17.642667 35.328 35.306667 35.328 26.709333 0 44.416-17.706667 44.416-35.328C864.426667 322.048 846.293333 304.384 820.010667 304.384zM693.248 548.757333c11.626667 0 23.296-0.810667 34.901333-2.005333-31.274667 146.133333-187.392 254.464-365.674667 254.464C163.370667 801.216 0 665.557333 0 492.970667c0-99.562667 54.208-181.418667 144.917333-244.864L108.8 138.965333l126.826667 63.786667c45.354667-8.810667 81.877333-18.069333 126.848-18.069333 11.221333 0 22.506667 0.405333 33.749333 1.557333-7.232 24.128-11.242667 49.749333-11.242667 75.882667C384.96 420.309333 521.066667 548.757333 693.248 548.757333zM498.133333 647.104c27.285333 0 45.333333-18.069333 45.333333-45.376 0-27.264-18.069333-45.333333-45.333333-45.333333-27.306667 0-54.570667 18.069333-54.570667 45.333333C443.968 629.056 471.210667 647.104 498.133333 647.104zM244.458667 556.437333c-27.306667 0-54.570667 18.048-54.570667 45.333333 0 27.306667 27.285333 45.354667 54.570667 45.354667 27.328 0 45.397333-18.069333 45.397333-45.354667C289.834667 574.869333 271.786667 556.437333 244.458667 556.437333z"  horiz-adv-x="1024" />

    
    <glyph glyph-name="rmb" unicode="&#58928;" d="M950.817234 467.782172c-9.337669 7.547907-22.900569 6.037507-30.402427-3.40761l-37.017078-46.613644c-1.171686 17.995863-3.502777 36.161594-7.281847 54.382585-46.245254 224.465285-263.35399 368.500748-485.129003 321.774541-221.773989-46.783513-364.066763-266.611174-317.876768-491.020176 46.188972-224.464261 263.349897-368.5601 485.127979-321.718259 80.706113 16.98893 149.96143 57.458643 204.098421 112.234177 0.220011 0.222057 0.444115 0.388856 0.665149 0.615007 0.890276 1.061169 1.165546 2.12336 2.166339 3.185552 1.611707 2.738367 2.727111 5.867638 2.727111 9.279341 0 9.948583-7.952112 17.994839-17.675568 17.994839-5.338588 0-10.007935-2.40477-13.231349-6.149047l-0.109494 0.055259c-49.193399-49.578162-112.333438-86.127589-185.537693-101.557-200.76449-42.366923-397.472594 88.145549-439.268512 291.370067-41.85527 203.173352 87.041402 402.205385 287.806915 444.573331 200.819748 42.309618 397.417335-88.142479 439.328887-291.37109 3.167133-15.650445 5.445012-31.18935 6.726192-46.668902l-44.969191 36.443004c-9.337669 7.543813-22.900569 6.034437-30.402427-3.411703-7.504928-9.390881-5.948479-23.137976 3.388167-30.742165 0-0.055259 0-0.055259 0.11154-0.055259l82.706677-67.181075 0-0.056282c4.783956-3.858888 10.509355-5.313006 16.063861-4.63967 5.67014 0.615007 10.949376 3.241834 14.786775 8.04728 0 0.056282 0.110517 0.11154 0.110517 0.11154l66.308195 83.726913C961.601858 446.429865 960.045409 460.182077 950.817234 467.782172L950.817234 467.782172zM612.762915 365.385037l0 0.225127c10.337439 0 18.675338 8.44023 18.675338 18.837021 0 10.396791-8.337899 18.835997-18.675338 18.835997l-112.553449 0L500.209466 437.934376l111.610984 110.11184-0.113587 0.110517c7.725962 6.874571 8.451486 18.780739 1.50119 26.605961-6.836709 7.825222-18.676361 8.494465-26.403347 1.565658l-104.936981-104.07331-110.445438 109.09979c-7.78122 6.878664-19.562545 6.15007-26.453489-1.676176-6.840802-7.713682-6.115278-19.615757 1.610684-26.490328l-0.11461-0.169869 116.115578-114.187669 0-35.548634-112.613824 0 0-0.110517c-10.283204 0-18.675338-8.383948-18.675338-18.781762 0-10.45205 8.392134-18.835997 18.675338-18.835997l0-0.110517 112.613824 0 0-58.18826-112.613824 0 0-0.109494c-10.283204 0-18.73162-8.495488-18.73162-18.835997 0-10.341532 8.448416-18.835997 18.73162-18.835997l0-0.11154 112.613824 0 0-111.786992 0.054235 0c0-10.341532 8.394181-18.780739 18.73162-18.780739 10.339486 0 18.676361 8.439206 18.676361 18.780739l0.166799 0 0 111.786992 112.553449 0 0 0.222057c10.337439 0 18.675338 8.44023 18.675338 18.835997 0 10.45205-8.337899 18.835997-18.675338 18.835997l-112.553449 0 0 58.128909L612.762915 365.385037 612.762915 365.385037z"  horiz-adv-x="1024" />

    
    <glyph glyph-name="4001liwufuzhi" unicode="&#58994;" d="M864.328929 638.146281l-0.004093 0.004093L155.669944 638.150374c-51.076282 0-92.62763-41.500183-92.62763-92.510974l0-68.918649c0-43.080168 29.630854-79.374792 69.609381-89.621157-2.876514-8.494465-4.39203-17.447371-4.39203-26.530236L128.259664 21.458987c0-23.561625 10.172687-46.27186 27.904537-62.288648 16.239869-14.673188 37.416168-22.74912 59.624982-22.74912l590.464049 0c22.208814 0 43.38409 8.076956 59.627029 22.74605 17.733896 16.020882 27.907607 38.727023 27.907607 62.292742L893.787868 360.569358c0 9.262968-1.581008 18.390859-4.565992 27.03268 39.022759 10.891048 67.733661 46.712905 67.733661 89.113597l0 68.920696C956.955536 596.647121 915.404188 638.146281 864.328929 638.146281zM480.127593-1.821229 215.78509-1.821229c-14.240329 0-25.777083 10.42442-25.777083 23.284309L190.008007 360.573451c0 12.860912 11.542894 23.282263 25.777083 23.282263l264.342504 0L480.127593-1.821229zM480.127593 447.699788l0-0.004093L155.665851 447.695694c-16.095583 0-29.144784 12.993942-29.144784 29.030174l0 68.916603c0 16.031115 13.049201 29.02608 29.144784 29.02608l324.461743 0L480.127593 447.699788zM832.031339 21.467173l0-0.004093c0-12.859889-11.537777-23.284309-25.778106-23.284309L542.252513-1.821229 542.252513 383.856737l263.999696 0c14.234189 0 25.778106-10.425444 25.778106-23.282263L832.030315 21.467173zM893.468596 476.720751c0-16.031115-13.045107-29.025057-29.143761-29.025057L542.252513 447.695694 542.252513 574.664457l322.0713 0c16.098653 0 29.143761-12.993942 29.143761-29.025057L893.467573 476.720751zM292.06745 638.125815l93.998861 91.732238 86.60752-88.750323-3.055592-2.981914 83.005482 0 93.999884 91.732238 86.60752-88.750323-3.055592-2.981914 60.98598 0c0.797156 15.587-4.647857 31.449269-16.407692 43.499723l-86.609567 88.750323c-22.376637 22.931269-59.108213 23.3805-82.037435 1.001817l-91.942015-89.721441-86.577844 88.719624c-22.376637 22.931269-59.108213 23.3805-82.038458 1.001817l-96.074126-93.755314c-11.126408-10.858302-16.943904-25.095561-17.445324-39.496549L292.06745 638.125815z"  horiz-adv-x="1024" />

    
    <glyph glyph-name="home" unicode="&#58920;" d="M979.84 491.456 574.272 812c-34.912 27.648-89.696 27.616-124.576 0L44.16 491.456c-13.856-10.976-16.224-31.104-5.28-44.96s30.624-16.224 44.48-5.28L96 451.584 96 64c0-54.944 57.888-96 108.8-96l640 0c50.304 0 83.2 38.592 83.2 96L928 450.08l11.68-8.864c5.888-4.64 13.12-6.88 20.064-6.88 9.44 0 18.912 4.16 25.216 12.16C995.936 460.352 993.728 480.48 979.84 491.456zM480 32l0 177.408c0 8.832 16 13.248 32 13.248s32-4.416 32-13.248L544 32 480 32zM864 64c0-21.216-5.856-32-19.2-32L608.64 32c0 0.48-0.64 0.864-0.64 1.344l0 176.064c0 37.216-30.016 77.28-96 77.28s-96-40.064-96-77.28l0-176.064c0-0.48 0.864-0.864 0.864-1.344L204.8 32C184.736 32 160 49.344 160 64L160 502.176l328.928 259.616c11.808 9.344 33.12 9.344 44.96 0L864 500.672 864 64z"  horiz-adv-x="1024" />

    
    <glyph glyph-name="ku" unicode="&#58896;" d="M512.00307-64.308399c-247.588935 0-448.311469 200.721511-448.311469 448.305329 0 247.588935 200.722534 448.311469 448.311469 448.311469 247.584841 0 448.305329-200.722534 448.305329-448.311469C960.309422 136.413112 759.587911-64.308399 512.00307-64.308399L512.00307-64.308399zM512.004093 789.771607c-224.112244 0-405.774677-181.662433-405.774677-405.774677 0-224.107127 181.662433-405.768537 405.774677-405.768537 224.106104 0 405.768537 181.662433 405.768537 405.768537C917.77263 608.109174 736.110197 789.771607 512.004093 789.771607L512.004093 789.771607zM556.342927 191.324746M642.565684 357.71945M485.058394 561.801499c0 7.470135-6.231935 13.533224-13.910824 13.533224-47.15395 0-87.129406 28.360931-106.356306 42.001603-4.421706 3.13848-7.898901 5.574972-10.292414 6.955412-6.620791 3.815909-15.131629 1.706875-19.054985-4.737908-3.923356-6.411013-1.753947-14.721283 4.839215-18.538215 1.864464-1.110287 4.620227-3.056616 8.124028-5.574972 21.588691-15.316847 66.517973-47.197952 122.739439-47.197952C478.82646 548.269297 485.058394 554.332387 485.058394 561.801499L485.058394 561.801499zM485.058394 561.801499M661.171438 624.306064c-2.366907-1.381463-5.869684-3.818979-10.321066-6.958482-19.192108-13.620206-59.160401-41.99444-106.306164-41.99444-7.676843 0-13.907755-6.065136-13.907755-13.538341 0-7.473205 6.230911-13.538341 13.907755-13.538341 56.212256 0 101.132328 31.869848 122.717949 47.192835 3.5038 2.492774 6.258541 4.495384 8.148587 5.577019 6.593162 3.817955 8.761548 12.131295 4.839215 18.548448C676.30102 626.038522 667.76153 628.149603 661.171438 624.306064L661.171438 624.306064zM661.171438 624.306064M607.117334 275.89077l-87.337137 41.669028c-3.582595 1.708921-7.682983 1.600451-11.18576-0.275269l-77.242222-41.673122c-6.411013-3.446495-8.952906-11.753695-5.708002-18.569938 3.216251-6.789637 11.029194-9.44 17.440208-6.072299l71.711252 38.691207 81.654718-38.966477c1.714038-0.826831 3.557012-1.211595 5.321192-1.211595 4.931313 0 9.6815 3.004427 11.835559 8.137331C616.592127 264.57505 613.659331 272.74308 607.117334 275.89077L607.117334 275.89077zM607.117334 275.89077M353.133759 223.685781M385.001561 514.185015l-215.487819 0c-9.381671 0-16.986883-9.091052-16.986883-20.305465 0-11.214413 7.605212-20.304442 16.986883-20.304442l42.149982 0c17.522072-40.903595 3.897773-83.748403 3.897773-83.748403-29.591969-77.949326 0-128.472 0-128.472 17.322527-41.86141 4.330632-91.662653 4.330632-91.662653 66.401316 12.991895 115.480104-13.713326 115.480104-13.713326 33.20117 39.696094 4.337795 101.045347 4.337795 101.045347-19.479657 49.079812 0 103.210663 0 103.210663 17.235546 42.171472 14.519692 86.332251 10.119475 113.340371l35.172057 0c9.381671 0 16.986883 9.091052 16.986883 20.304442C401.987421 505.093962 394.382209 514.185015 385.001561 514.185015zM327.699484 370.816746l-1.344624-3.685949c-9.085936-25.26236-20.385283-56.697303 4.728698-121.659851 15.356756-39.649022 5.89936-62.225203-0.548492-71.832002 0 0.023536-0.024559 0.023536-0.048095 0.023536-1.119497 0.449231-2.216481 0.848321-3.312442 1.269923-14.859429 5.599532-29.194926 9.133008-42.759873 10.979052-1.170662 0.146333-2.339278 0.323365-3.50994 0.469698-6.373151 0.721431-12.544711 1.119497-18.518772 1.147126-1.341554 0-2.639107-0.074701-3.979638-0.125867-4.952802-0.122797-9.760295-0.472767-14.338566-1.045819-1.217734-0.149403-2.464121-0.248663-3.659343-0.421602-0.970094-0.149403-1.865487-0.398066-2.812045-0.548492 4.330632 20.608364 5.758144 50.145074-6.297426 71.458495-18.802228 33.239032-17.920138 89.554642-0.248663 140.604318 6.733355 19.517519 0.288572 52.972469-5.770424 76.126818l110.551862 0C340.152097 453.580728 343.837022 416.277124 327.699484 370.816746zM855.267041 514.185015l-215.487819 0c-9.381671 0-16.986883-9.091052-16.986883-20.305465 0-11.214413 7.605212-20.304442 16.986883-20.304442l37.761022 0c-4.400217-27.00812-7.116071-71.168899 10.119475-113.340371 0 0 19.479657-54.131875 0-103.210663 0 0-28.863375-61.349253 4.337795-101.045347 0 0 49.078789 26.705222 115.480104 13.713326 0 0-12.991895 49.801243 4.330632 91.662653 0 0 29.591969 50.522674 0 128.472 0 0-13.624299 42.844807 3.897773 83.748403l39.561018 0c9.381671 0 16.986883 9.091052 16.986883 20.304442C872.252901 505.093962 864.648712 514.185015 855.267041 514.185015zM796.318464 397.44829c17.672498-51.049676 18.553565-107.365286-0.248663-140.604318-12.05557-21.312398-10.628058-50.849108-6.297426-71.458495-0.946558 0.149403-1.841951 0.398066-2.812045 0.548492-1.195222 0.172939-2.441609 0.272199-3.659343 0.421602-4.578272 0.572028-9.385764 0.923022-14.338566 1.045819-1.341554 0.051165-2.639107 0.125867-3.979638 0.125867-5.974062-0.026606-12.145621-0.425695-18.518772-1.147126-1.170662-0.146333-2.338255-0.323365-3.50994-0.469698-13.564947-1.846044-27.901467-5.378497-42.759873-10.979052-1.095961-0.421602-2.192945-0.819668-3.312442-1.269923-0.023536 0-0.048095 0-0.048095-0.023536-6.447852 9.605775-15.904225 32.18298-0.548492 71.832002 25.113981 64.962547 13.814634 96.397491 4.728698 121.659851l-1.344624 3.685949c-16.138562 45.460378-12.453636 82.763982-8.132214 102.758362l110.551862 0C796.029892 450.420759 789.584086 416.965809 796.318464 397.44829z"  horiz-adv-x="1024" />

    
    <glyph glyph-name="key" unicode="&#58952;" d="M675 761c-116.897 0-212-95.103-212-212 0-46.416 15.006-89.387 40.404-124.341l-315.031-315.032c-12.497-12.496-12.497-32.758 0-45.254 6.248-6.249 14.438-9.373 22.627-9.373s16.379 3.124 22.627 9.373l89.631 89.631 107.707-107.706c6.249-6.248 14.438-9.372 22.627-9.372s16.379 3.124 22.627 9.373c12.497 12.496 12.497 32.758 0 45.255l-107.705 107.706 41.741 41.74 74.708-74.708c6.249-6.249 14.438-9.373 22.627-9.373s16.379 3.124 22.627 9.373c12.497 12.496 12.497 32.758 0 45.254l-74.708 74.709 92.837 92.837c35.362-26.427 79.213-42.092 126.654-42.092 116.897 0 212 95.103 212 212s-95.103 212-212 212zM675 401c-39.781 0-75.942 15.781-102.564 41.406-2.998 3.909-6.78 7.063-11.127 9.261 4.96-2.694 0.868-0.083-3.694 1.531-15.482 21.374-30.614 56.851-30.614 95.802 0 81.607 66.393 148 148 148s148-66.393 148-148-66.393-148-148-148z"  horiz-adv-x="1024" />

    
    <glyph glyph-name="shimingrenzheng" unicode="&#58883;" d="M954.660571 52.224c16.018286-46.738286 26.185143-94.646857 32.182858-144.164571H36.571429c4.388571 21.723429 8.557714 43.008 13.019428 64.292571 7.533714 35.913143 17.481143 71.168 32.256 104.813714 10.313143 23.478857 21.650286 46.957714 44.617143 60.562286 22.162286 13.092571 44.763429 25.6 68.169143 36.132571 52.150857 23.625143 104.96 45.787429 158.573714 69.046858l104.813714-219.721143c8.996571 19.821714 17.334857 37.888 25.234286 56.100571 0.877714 2.121143-0.146286 5.632-1.243428 7.972572-6.729143 14.043429-13.970286 27.867429-20.553143 41.984-1.097143 2.413714-0.877714 7.168 0.804571 8.850285 16.018286 16.749714 32.475429 33.133714 50.614857 51.492572 6.363429-7.094857 12.288-13.970286 18.505143-20.406857 9.362286-9.728 18.797714-19.456 28.672-28.745143 4.242286-4.022857 5.193143-7.094857 2.194286-12.653715-7.314286-13.458286-13.897143-27.282286-20.48-41.033142-1.097143-2.413714-2.048-5.997714-1.097143-8.118858 7.826286-17.627429 16.091429-35.035429 24.722286-53.394285l103.204571 216.722285c15.725714-6.436571 31.451429-12.361143 46.811429-19.163428 47.250286-20.845714 94.134857-42.861714 141.750857-62.902857 49.371429-20.918857 80.237714-57.417143 97.499428-107.666286zM525.970286 853.357714c4.242286-9.289143 7.387429-18.651429 12.507428-26.770285 13.531429-21.504 35.401143-30.061714 58.514286-36.864 31.232-9.216 59.977143-23.844571 83.382857-46.665143 22.747429-22.235429 36.132571-49.810286 41.106286-81.700572 6.656-42.422857-0.804571-83.309714-12.288-124.342857 9.874286-0.365714 11.995429-7.387429 12.068571-15.140571 0.438857-23.771429-1.389714-48.201143-13.604571-68.169143-11.117714-18.139429-13.531429-38.107429-20.406857-57.051429-19.309714-53.467429-49.956571-98.523429-95.305143-133.046857a151.332571 151.332571 0 0 0-79.433143-31.890286 109.421714 109.421714 0 0 0-69.046857 18.578286c-65.974857 43.300571-103.643429 105.545143-118.637714 182.564572a22.016 22.016 0 0 1-4.681143 9.654857c-9.069714 10.386286-12.141714 23.259429-14.555429 36.205714-2.267429 12.068571-4.681143 24.137143-5.339428 36.352-0.950857 15.798857 1.243429 17.92 15.798857 21.942857-2.194286 15.213714-4.534857 30.427429-6.509715 45.641143-4.096 31.232-5.778286 62.683429-0.658285 93.842286 4.315429 26.404571 17.700571 49.225143 34.889143 69.12a246.784 246.784 0 0 0 90.550857 66.340571c12.946286 5.558857 26.038857 8.338286 40.009143 1.901714 8.265143 22.674286 29.842286 31.378286 45.933714 45.714286l-11.776-16.164571 1.097143-1.316572 16.384 11.264z"  horiz-adv-x="1024" />

    
    <glyph glyph-name="tuige" unicode="&#59222;" d="M959.488 211.96799999999996V554.496c-3.072 96.256-96.768 98.816-96.768 98.816H311.808c-12.288 0-19.456-7.168-19.456-7.168L71.168 401.92c-7.168-7.68-7.168-17.408-7.168-17.408 0-13.312 7.68-20.48 7.68-20.48l218.624-242.176c8.192-8.192 18.432-7.68 18.432-7.68h553.984c99.328 6.144 96.768 97.792 96.768 97.792z m-276.48 54.272c-8.704-8.704-20.992-7.68-20.992-7.68-15.872 0-23.04 8.704-23.04 8.704l-71.68 71.68-71.68-71.68s-7.168-8.704-23.04-8.704c0 0-12.288-1.024-20.992 7.68 0 0-9.728 10.24-9.728 22.528 0 0 0 15.872 9.728 24.064l71.168 71.168L450.56 455.68c-11.264 11.264-8.704 24.064-8.704 24.064 0 13.824 8.704 20.48 8.704 20.48 9.216 9.216 20.992 9.728 20.992 9.728 14.848 0 24.064-9.728 24.064-9.728l71.68-71.68 71.68 71.68s8.704 9.728 24.064 9.728c0 0 11.776 0 20.992-9.728 0 0 8.704-6.656 8.704-20.48 0 0 2.048-12.8-8.704-24.064l-71.68-71.68 71.168-71.168c9.728-8.192 9.728-24.064 9.728-24.064-0.512-12.288-10.24-22.528-10.24-22.528z"  horiz-adv-x="1024" />

    
    <glyph glyph-name="idcard" unicode="&#58996;" d="M1053.926 754.789h-798.626c-62.983-0.064-114.023-51.105-114.087-114.082v-513.408c0.064-62.983 51.105-114.023 114.083-114.087h798.632c62.983 0.064 114.024 51.105 114.087 114.082v513.408c-0.064 62.983-51.105 114.023-114.082 114.087zM1110.965 127.298c-0.041-31.491-25.558-57.008-57.045-57.05h-798.62c-31.487 0.047-56.998 25.562-57.038 57.045v513.405c0.04 31.491 25.558 57.008 57.045 57.049h798.62c31.487-0.047 56.998-25.562 57.039-57.045zM946.142 361.40999999999997c30.804 26.183 50.735 64.688 50.735 108.152 0 78.633-63.979 142.613-142.613 142.613s-142.601-63.98-142.601-142.613c0-43.464 19.961-81.969 50.766-108.152-63.939-33.32-107.813-100.123-107.813-177.071 0-15.753 12.772-28.524 28.524-28.524 15.753 0 28.524 12.772 28.524 28.524 0 78.633 63.98 142.612 142.612 142.612s142.613-63.979 142.613-142.612c0 0 0 0 0 0 0-15.753 12.772-28.524 28.524-28.524 15.753 0 28.524 12.772 28.524 28.524 0 0 0 0 0 0-0.009 76.948-43.854 143.752-107.795 177.071zM768.702 469.563c0 47.257 38.308 85.563 85.564 85.563s85.563-38.308 85.563-85.563c0-47.257-38.308-85.563-85.563-85.563-47.234 0.052-85.51 38.33-85.563 85.559zM626.087 555.137h-342.264c-15.753 0-28.524-12.772-28.524-28.524s12.772-28.524 28.524-28.524h342.264c15.753 0 28.524 12.772 28.524 28.524s-12.772 28.524-28.524 28.524zM597.563 412.524h-313.74c-15.753 0-28.524-12.772-28.524-28.524s12.772-28.524 28.524-28.524h313.74c15.753 0 28.524 12.772 28.524 28.524s-12.772 28.524-28.524 28.524zM512 269.913h-228.176c-15.753 0-28.524-12.772-28.524-28.524s12.772-28.524 28.524-28.524h228.176c15.753 0 28.524 12.772 28.524 28.524s-12.772 28.524-28.524 28.524z"  horiz-adv-x="1417" />

    
    <glyph glyph-name="home1" unicode="&#58893;" d="M512-127.968q-103.392 0-198.272 40.64T150.112 22.08t-109.408 163.616-40.64 198.272 40.64 198.272 109.408 163.616 163.616 109.408T512 895.904t198.272-40.64 163.616-109.408 109.408-163.616 40.64-198.272-40.64-198.272-109.408-163.616-163.616-109.408T512-127.968z m0 983.776q-95.36 0-183.2-37.152T177.728 718.272t-100.384-151.072T40.192 384t37.152-183.2 100.384-151.072 151.072-100.384 183.712-37.152 183.2 37.152 150.592 100.384 100.384 151.072T983.84 384t-37.152 183.2-100.384 151.072-151.072 100.384-183.2 37.152z m311.2-476.832q-9.024-21.088-36.128-24.096h-39.136v-196.768q0-32.128-23.104-55.2t-55.2-23.104h-79.296v196.768q0 16.064-11.04 27.616t-28.096 11.552h-78.304q-16.064 0-27.616-11.552t-11.552-27.616v-196.768h-78.304q-32.128 0-55.2 23.104t-23.104 55.2V354.88H238.976q-28.096 0.992-38.144 24.096-12.032 27.104 17.056 57.216l237.92 247.968q23.104 24.096 56.224 24.096t56.224-24.096l237.92-247.968q29.12-30.112 17.056-57.216z m-46.176 30.112l-237.92 247.968q-12.032 12.032-27.104 11.04-15.072 0.992-27.104-11.04l-237.92-247.968q-0.992-0.992-7.04-12.032l0.992-3.008H278.08q16.064 0 27.616-11.552t11.552-27.616q0-0.992-0.512-3.52l-0.512-2.496v-190.72q0-16.064 11.552-27.616t27.616-11.552h39.136v157.6q0 32.128 23.104 55.2t55.2 23.104h78.304q33.12 0 56.224-23.104t23.104-55.2v-157.6h39.136q16.064 0 27.616 11.552t11.552 27.616v196.768q0 16.064 11.552 27.616t27.616 11.552h35.136l0.992 3.008q-6.016 11.04-7.04 12.032z"  horiz-adv-x="1024" />

    
    <glyph glyph-name="radio1" unicode="&#58906;" d="M512 0A384 384 0 1 1 512 768a384 384 0 0 1 0-768z m0-64A448 448 0 1 0 512 832a448 448 0 0 0 0-896z"  horiz-adv-x="1024" />

    
    <glyph glyph-name="help" unicode="&#58895;" d="M512-104.727273c269.917091 0 488.727273 218.810182 488.727273 488.727273S781.917091 872.727273 512 872.727273 23.272727 653.917091 23.272727 384 242.082909-104.727273 512-104.727273z m0 46.545455a442.181818 442.181818 0 1 0 0 884.363636 442.181818 442.181818 0 0 0 0-884.363636zM520.285091 616.727273c-46.917818 0-83.409455-14.336-109.474909-43.008C384.744727 546.350545 372.363636 509.858909 372.363636 464.244364h51.479273c0 31.930182 7.168 56.692364 21.504 74.938181 15.639273 21.504 39.749818 31.930182 72.331636 31.930182 27.368727 0 48.872727-7.168 63.860364-22.807272 14.336-14.336 22.155636-34.536727 22.155636-60.602182 0-18.245818-6.516364-35.188364-19.54909-51.479273-3.909818-5.213091-11.729455-13.032727-22.155637-23.458909-35.188364-31.278545-56.692364-56.040727-65.815273-75.589818-7.819636-16.290909-11.729455-35.188364-11.729454-56.692364v-14.987636h52.130909v14.987636c0 17.594182 3.909818 33.233455 12.381091 47.569455 6.516364 11.729455 16.290909 23.458909 30.626909 35.84 28.672 25.413818 46.266182 42.356364 52.782545 50.176a122.88 122.88 0 0 1 24.762182 76.241454c0 39.098182-12.381091 69.725091-36.491636 91.880727-25.413818 23.458909-58.647273 34.536727-100.352 34.536728z m-9.774546-396.846546a37.329455 37.329455 0 0 1-28.020363-11.077818c-7.819636-7.168-11.077818-16.290909-11.077818-27.368727s3.258182-20.200727 11.077818-28.020364a39.936 39.936 0 0 1 28.020363-11.077818 39.936 39.936 0 0 1 28.020364 11.077818 35.933091 35.933091 0 0 1 11.729455 28.020364 37.329455 37.329455 0 0 1-11.077819 27.368727 38.772364 38.772364 0 0 1-28.672 11.077818z"  horiz-adv-x="1024" />

    
    <glyph glyph-name="weixin_denglu" unicode="&#58949;" d="M633.6 467.2c-102.4 0-185.6-64-185.6-153.6s83.2-160 185.6-160c19.2 0 44.8 6.4 64 12.8l57.6-32-12.8 57.6c44.8 32 76.8 76.8 76.8 121.6 0 83.2-89.6 153.6-185.6 153.6z m-57.6-128c-12.8 0-19.2 6.4-19.2 19.2-6.4 12.8 6.4 25.6 19.2 25.6 12.8 0 25.6-12.8 25.6-19.2 0-12.8-12.8-25.6-25.6-25.6z m115.2 0c-12.8 0-19.2 6.4-19.2 19.2 0 12.8 6.4 19.2 19.2 19.2 12.8 0 25.6-12.8 25.6-19.2 6.4-6.4-6.4-19.2-25.6-19.2zM435.2 313.6c0 96 83.2 172.8 185.6 172.8H640c-19.2 83.2-108.8 147.2-217.6 147.2-115.2 0-217.6-83.2-217.6-185.6 0-57.6 32-108.8 89.6-147.2l-19.2-64 76.8 38.4c25.6-6.4 51.2-12.8 76.8-12.8H448c-12.8 19.2-12.8 32-12.8 51.2z m70.4 224c6.4 0 12.8 0 19.2-6.4 6.4-6.4 6.4-12.8 6.4-19.2 0-6.4 0-12.8-6.4-19.2-6.4-6.4-12.8-6.4-19.2-6.4-19.2 0-32 6.4-32 25.6 0 19.2 12.8 25.6 32 25.6z m-134.4-44.8c-6.4-6.4-12.8-6.4-19.2-6.4-12.8 0-32 6.4-32 25.6 0 19.2 19.2 25.6 32 25.6 6.4 0 12.8 0 19.2-6.4s6.4-12.8 6.4-19.2c0-6.4 0-12.8-6.4-19.2zM512 870.4C243.2 870.4 25.6 652.8 25.6 384c0-268.8 217.6-486.4 486.4-486.4S998.4 115.2 998.4 384c0 268.8-217.6 486.4-486.4 486.4z m0-940.8C262.4-70.4 57.6 134.4 57.6 384S262.4 832 512 832s454.4-204.8 454.4-454.4-204.8-448-454.4-448z"  horiz-adv-x="1024" />

    
    <glyph glyph-name="phone" unicode="&#58997;" d="M920.422353 190.79940399999998c-94.192835 60.406275-108.526527 68.801723-141.698786 63.47778-33.138131-5.323943-43.001077-12.559045-90.677668-80.780594-6.757312-8.395448-70.74701-109.209084-300.427365 115.386223-168.386756 176.782205-118.525984 240.942542-86.68471 282.476121 27.711805 26.346692 58.802266 38.018412 63.409524 85.080702 1.979415 21.671178-0.78494 66.105624-70.678754 163.642987C246.807072 889.737542 237.490172 895.300379 206.229071 895.948808c-31.295228 0.648429-81.121873-15.118633-132.347758-57.16413C23.201472 804.144922 7.570922 763.498666 2.144596 715.9244590000001c-5.733477-60.064996-16.961536-263.193892 235.925749-546.898616 252.887285-283.704724 579.797853-344.691171 693.68245-264.217728 49.075832 35.492952 89.176043 114.32826 90.916563 165.042228 6.143011 34.981035-8.05417 60.576914-102.281133 120.949061z"  horiz-adv-x="1024" />

    
    <glyph glyph-name="back" unicode="&#58881;" d="M363.84 423.021c-26.901-24.38-26.538-64.507 0.89-88.507l309.222-270.569c8.867-7.759 22.344-6.86 30.103 2.007s6.86 22.344-2.007 30.103L392.827 366.624c-8.231 7.202-8.325 17.54-0.335 24.782l309.834 280.786c8.73 7.912 9.394 21.403 1.482 30.134-7.912 8.73-21.403 9.394-30.134 1.482L363.841 423.02z"  horiz-adv-x="1024" />

    
    <glyph glyph-name="kucun" unicode="&#59207;" d="M406.94777823 741.21982754c6.46551699 0 9.6982759-3.23275891 9.6982759-9.6982759v-242.45689609c0-6.46551699-3.23275891-9.6982759-9.6982759-9.69827591h-242.4568961c-6.46551699 0-9.6982759 3.23275891-9.6982759 9.69827591v242.45689609c0 6.46551699 3.23275891 9.6982759 9.6982759 9.6982759h242.45689609m1e-8 64.65517246h-242.4568961c-42.02586172 0-74.35344836-32.32758581-74.35344836-74.35344836v-242.45689609c0-42.02586172 32.32758581-74.35344836 74.35344836-74.35344837h242.45689609c42.02586172 0 74.35344836 32.32758581 74.35344837 74.35344837v242.45689609c0 42.02586172-32.32758581 74.35344836-74.35344836 74.35344836zM406.94777823 288.63362036c6.46551699 0 9.6982759-3.23275891 9.6982759-9.69827591v-242.45689609c0-6.46551699-3.23275891-9.6982759-9.6982759-9.6982759h-242.4568961c-6.46551699 0-9.6982759 3.23275891-9.6982759 9.6982759v242.45689609c0 6.46551699 3.23275891 9.6982759 9.6982759 9.69827591h242.45689609m1e-8 64.65517246h-242.4568961c-42.02586172 0-74.35344836-32.32758581-74.35344836-74.35344837v-242.45689609c0-42.02586172 32.32758581-74.35344836 74.35344836-74.35344836h242.45689609c42.02586172 0 74.35344836 32.32758581 74.35344837 74.35344836v242.45689609c0 42.02586172-32.32758581 74.35344836-74.35344836 74.35344837zM859.53398541 288.63362036c6.46551699 0 9.6982759-3.23275891 9.69827591-9.69827591v-242.45689609c0-6.46551699-3.23275891-9.6982759-9.6982759-9.6982759h-242.45689692c-6.46551699 0-9.6982759 3.23275891-9.69827591 9.6982759v242.45689609c0 6.46551699 3.23275891 9.6982759 9.69827591 9.69827591h242.45689691m1e-8 64.65517246h-242.45689692c-42.02586172 0-74.35344836-32.32758581-74.35344754-74.35344837v-242.45689609c0-42.02586172 32.32758581-74.35344836 74.35344754-74.35344836h242.45689691c42.02586172 0 74.35344836 32.32758581 74.35344837 74.35344836v242.45689609c0 42.02586172-32.32758581 74.35344836-74.35344836 74.35344837z"  horiz-adv-x="1027" />

    
    <glyph glyph-name="Artboard" unicode="&#58985;" d="M511.997143-128c-17.599902 0-35.336946 0.881138-52.710563 2.619414a521.185663 521.185663 0 0 0-51.104858 7.692528c-16.571336 3.348553-33.142672 7.561101-49.256868 12.518788a511.078291 511.078291 0 0 0-47.150594 17.095904 509.890869 509.890869 0 0 0-44.79975 21.427309 509.697727 509.697727 0 0 0-42.206621 25.509572 509.190301 509.190301 0 0 0-75.625864 62.27851 509.186873 509.186873 0 0 0-62.275081 75.632721 510.390295 510.390295 0 0 0-25.509572 42.206621 510.022297 510.022297 0 0 0-21.426166 44.79975 511.169719 511.169719 0 0 0-17.095905 47.150594 514.522843 514.522843 0 0 0-12.517644 49.256868 520.737666 520.737666 0 0 0-7.692529 51.104858c-1.738276 17.371332-2.619414 35.107233-2.619414 52.710563s0.878852 35.339231 2.612557 52.710563a523.290794 523.290794 0 0 0 7.675386 51.106001c3.340553 16.571336 7.542815 33.142672 12.492502 49.256867a511.287433 511.287433 0 0 0 17.063904 47.150595 509.72287 509.72287 0 0 0 21.390738 44.79975 510.41658 510.41658 0 0 0 25.473001 42.205478 508.382306 508.382306 0 0 0 62.199653 75.619007 508.246307 508.246307 0 0 0 75.599578 62.285367 509.592585 509.592585 0 0 0 42.204336 25.509572 509.335443 509.335443 0 0 0 44.814607 21.426166 510.652008 510.652008 0 0 0 47.180308 17.095904 515.139982 515.139982 0 0 0 49.301439 12.518788 522.145658 522.145658 0 0 0 51.176857 7.692528c17.39876 1.738276 35.165518 2.619414 52.806563 2.619414s35.407802-0.881138 52.806562-2.619414a522.488513 522.488513 0 0 0 51.176858-7.692528 514.800556 514.800556 0 0 0 49.301439-12.518788 511.319432 511.319432 0 0 0 47.180308-17.095904 509.335443 509.335443 0 0 0 44.814607-21.426166A508.844018 508.844018 0 0 0 799.481253 809.137628a508.21545 508.21545 0 0 0 75.599578-62.285367 508.389163 508.389163 0 0 0 62.209939-75.632721 509.476014 509.476014 0 0 0 25.473-42.205479 510.205153 510.205153 0 0 0 21.390738-44.79975 511.287433 511.287433 0 0 0 17.063905-47.150594 515.76855 515.76855 0 0 0 12.492502-49.256868 522.147943 522.147943 0 0 0 7.675385-51.106c1.733705-17.371332 2.612557-35.10609 2.612557-52.710563s-0.881138-35.338089-2.619414-52.710563a521.133092 521.133092 0 0 0-7.692528-51.104858c-3.348553-16.571336-7.559958-33.142672-12.518788-49.256868a510.98572 510.98572 0 0 0-17.095904-47.150594 509.711441 509.711441 0 0 0-21.426166-44.79975 509.574299 509.574299 0 0 0-25.509572-42.206622 509.194873 509.194873 0 0 0-62.284224-75.619006 509.181159 509.181159 0 0 0-75.632721-62.275081 509.945726 509.945726 0 0 0-42.206622-25.509572 510.358295 510.358295 0 0 0-44.79975-21.427309 510.98572 510.98572 0 0 0-47.150594-17.095905 514.511415 514.511415 0 0 0-49.256868-12.518787 520.840522 520.840522 0 0 0-51.104857-7.692528A530.374183 530.374183 0 0 0 511.997143-128z m0.45714 459.867148l199.963456-199.963455a36.91408 36.91408 0 0 1 12.286788-8.159955 37.021508 37.021508 0 0 1 13.975922-2.719985 37.028365 37.028365 0 0 1 13.977065 2.719985 36.923223 36.923223 0 0 1 12.287932 8.159955 36.91408 36.91408 0 0 1 8.158811 12.286788 37.021508 37.021508 0 0 1 2.719985 13.977065 37.020365 37.020365 0 0 1-2.719985 13.977065 36.91408 36.91408 0 0 1-8.158811 12.286788l-199.964599 199.964599 200.050312 200.057169a36.91408 36.91408 0 0 1 8.159955 12.286789 37.015793 37.015793 0 0 1 2.719985 13.977065 37.013508 37.013508 0 0 1-2.719985 13.975922 36.903794 36.903794 0 0 1-8.159955 12.286788 36.91408 36.91408 0 0 1-12.286788 8.159955 37.018079 37.018079 0 0 1-13.977065 2.719984 37.016936 37.016936 0 0 1-13.975922-2.719984 36.91408 36.91408 0 0 1-12.285646-8.159955L512.454283 436.922562l-200.054883 200.054883a36.91408 36.91408 0 0 1-12.286789 8.159955 37.018079 37.018079 0 0 1-13.977065 2.719985 37.018079 37.018079 0 0 1-13.977065-2.719985 36.91408 36.91408 0 0 1-12.286788-8.159955 36.904937 36.904937 0 0 1-8.158812-12.286788 37.018079 37.018079 0 0 1-2.719985-13.975922 37.020365 37.020365 0 0 1 2.719985-13.977065 36.91408 36.91408 0 0 1 8.158812-12.286789l200.056026-200.054883-199.964598-199.964599a36.91408 36.91408 0 0 1-8.158812-12.286788 37.020365 37.020365 0 0 1-2.719985-13.977065 37.021508 37.021508 0 0 1 2.719985-13.977065 36.91408 36.91408 0 0 1 8.158812-12.286788 36.91408 36.91408 0 0 1 12.286788-8.159955 37.028365 37.028365 0 0 1 13.977065-2.719985 37.028365 37.028365 0 0 1 13.977065 2.719985 36.924365 36.924365 0 0 1 12.287931 8.159955l199.962313 199.963455z"  horiz-adv-x="1024" />

    
    <glyph glyph-name="address" unicode="&#59022;" d="M348.625455 416.116364c19.549091-29.672727 39.098182-59.229091 58.647272-88.901819 18.269091-27.810909 36.770909-55.738182 55.04-83.432727 6.516364-9.774545 12.916364-19.549091 19.432728-29.44 7.563636-11.52 19.898182-17.338182 32.116363-17.338182s24.552727 5.701818 32.116364 17.338182c8.727273 13.149091 17.570909 26.530909 26.181818 39.68 19.083636 28.858182 38.167273 57.716364 57.134545 86.574546 18.734545 28.392727 37.352727 56.669091 56.203637 85.061818 15.941818 24.32 33.629091 48.290909 46.545454 74.472727 12.101818 24.669091 19.898182 51.316364 23.156364 78.661818 1.047273 9.309091 1.512727 18.734545 1.512727 28.043637 0 134.283636-108.8 242.967273-242.734545 242.967272h-0.581818c-134.167273-0.349091-242.152727-108.8-242.152728-242.967272 0-28.392727 5.003636-56.669091 14.545455-83.2 14.196364-38.865455 40.029091-72.843636 62.836364-107.52zM396.8 724.014545c31.069091 31.185455 72.494545 48.407273 116.596364 48.407273h0.465454c91.112727 0 165.236364-74.123636 165.236364-165.469091 0-6.4-0.349091-12.916364-1.047273-19.2-2.210909-18.618182-7.447273-36.654545-15.709091-53.410909-7.563636-15.36-18.501818-31.650909-30.138182-48.756363-3.723636-5.585455-7.563636-11.287273-11.52-17.221819l-56.203636-85.061818-28.509091-43.287273-22.225454-33.62909-41.89091 63.650909-53.527272 81.105454-5.12 7.796364c-4.538182 6.865455-9.192727 13.498182-13.498182 20.014545-16.872727 25.018182-32.930909 48.523636-41.309091 71.330909-6.632727 18.152727-9.890909 37.12-9.890909 56.669091 0.116364 44.334545 17.105455 85.876364 48.290909 117.061818zM467.432727 598.109091a46.545455 46.545455 0 1 1 93.090909 0 46.545455 46.545455 0 1 1-93.090909 0ZM945.803636 423.330909c-47.36-23.738182-181.992727-88.087273-188.16-107.869091-2.210909-4.770909-3.374545-10.123636-3.374545-15.825454 0-21.410909 17.338182-38.749091 38.749091-38.749091 6.632727 0 60.858182 32.116364 79.592727 42.24 26.647273 14.429091 27.461818 9.192727 27.461818-16.756364v-187.927273c0-8.727273-4.770909-16.64-12.450909-20.829091-13.032727-7.098182-25.949091-14.545455-38.749091-21.876363-50.850909-29.207273-103.447273-59.461818-145.454545-59.461818-12.683636 0-23.854545 2.676364-35.258182 8.378181-14.312727 7.330909-28.276364 15.243636-42.821818 23.738182-35.025455 20.130909-74.821818 43.170909-124.276364 56.436364-43.170909 11.636364-88.436364 17.570909-134.516363 17.570909-56.901818 0-116.829091-8.843636-182.69091-26.88-9.774545-2.676364-19.432727-5.469091-28.858181-8.378182-15.243636-4.654545-30.603636 6.632727-30.603637 22.690909V278.923636c0 9.890909 6.167273 18.967273 15.709091 22.341819 29.789091 10.705455 93.556364 29.44 99.607273 31.650909 19.2 2.327273 33.978182 18.618182 33.978182 38.516363 0 21.410909-17.338182 38.749091-38.749091 38.749091-4.189091 0-8.261818-0.581818-11.985455-1.861818-54.458182-13.614545-108.101818-33.047273-161.047272-53.410909-9.192727-3.607273-15.243636-12.218182-15.243637-21.992727v-356.654546c0-14.312727 14.312727-24.203636 27.810909-19.083636 94.952727 36.189091 191.883636 67.956364 292.072728 67.956363 37.701818 0 75.752727-4.538182 114.385454-14.894545 57.716364-15.476364 100.072727-47.941818 152.203636-74.472727 23.389091-11.752727 46.894545-16.872727 70.283637-16.872728 91.229091 0 181.178182 75.403636 262.050909 111.127273 7.447273 3.258182 12.218182 10.589091 12.218182 18.734546V365.381818v40.843637c0.116364 18.618182-21.178182 22.690909-31.883637 17.105454z"  horiz-adv-x="1024" />

    
    <glyph glyph-name="wo" unicode="&#58898;" d="M512 355.5c-59.1 0-114.7 23-156.5 64.8s-64.8 97.4-64.8 156.5 23 114.7 64.8 156.5S452.9 798.1 512 798.1s114.7-23 156.5-64.8 64.8-97.4 64.8-156.5-23-114.7-64.8-156.5-97.4-64.8-156.5-64.8z m0 392.7c-94.5 0-171.3-76.9-171.3-171.3S417.5 405.5 512 405.5c94.5 0 171.3 76.9 171.3 171.3S606.5 748.2 512 748.2zM899.4-30.6c-13.8 0-25 11.2-25 25 0 115.6-53.3 221.6-146.1 290.8-11.1 8.2-13.4 23.9-5.1 35 8.2 11.1 23.9 13.4 35 5.1 50.5-37.6 92.3-87 120.9-142.8 30.1-58.6 45.3-121.8 45.3-188.1 0-13.8-11.2-25-25-25zM124.6-31.9c-13.8 0-25 11.2-25 25 0 55.7 10.9 109.7 32.4 160.5 20.8 49.1 50.5 93.2 88.4 131.1s82 67.6 131.1 88.4c50.9 21.5 104.9 32.4 160.5 32.4 13.8 0 25-11.2 25-25s-11.2-25-25-25c-199.8 0-362.4-162.6-362.4-362.4 0-13.8-11.2-25-25-25z"  horiz-adv-x="1024" />

    
    <glyph glyph-name="forward" unicode="&#59223;" d="M660.16 344.97900000000004c26.90100001 24.38 26.538 64.50699999-0.89 88.507l-309.222 270.569c-8.86699999 7.759-22.344 6.86-30.103-2.007s-6.86-22.344 2.007-30.103L631.17299999 401.376c8.231-7.202 8.325-17.54 0.33500001-24.782l-309.834-280.786c-8.73-7.912-9.394-21.403-1.482-30.134 7.912-8.73 21.403-9.394 30.134-1.482L660.159 344.98z"  horiz-adv-x="1024" />

    


  </font>
</defs>
</svg>
